<?xml version="1.0" standalone="no"?>
<!DOCTYPE svg PUBLIC "-//W3C//DTD SVG 20010904//EN"
 "http://www.w3.org/TR/2001/REC-SVG-20010904/DTD/svg10.dtd">
<svg version="1.0" xmlns="http://www.w3.org/2000/svg"
 width="460.000000pt" height="460.000000pt" viewBox="0 0 460.000000 460.000000"
 preserveAspectRatio="xMidYMid meet">
<metadata>
Created by potrace 1.14, written by Peter Selinger 2001-2017
</metadata>
<g transform="translate(0.000000,460.000000) scale(0.100000,-0.100000)"
fill="#000000" stroke="none">
<path d="M0 2300 l0 -2300 326 0 325 0 -7 23 c-3 12 -13 30 -22 40 -8 9 -12
17 -8 17 4 0 -4 21 -18 46 -14 26 -26 55 -26 65 0 10 -6 22 -14 26 -7 4 -23
37 -36 73 -12 36 -39 99 -59 140 -32 67 -36 84 -37 160 -2 82 -17 203 -31 245
-4 11 -6 26 -5 32 2 7 -2 13 -8 13 -6 0 -15 12 -21 28 -5 15 -19 45 -31 67
-23 45 -20 125 6 154 19 21 9 72 -15 78 -15 4 -17 15 -16 70 0 58 3 66 24 74
29 11 29 18 0 61 -18 25 -22 40 -16 56 5 12 12 22 16 22 4 0 15 13 24 28 20
36 20 189 0 184 -10 -2 -12 9 -7 45 11 84 4 294 -11 361 -17 72 2 351 31 452
9 30 25 98 35 150 19 94 25 116 41 155 9 21 30 99 34 125 1 8 7 24 13 35 6 11
16 38 22 60 20 65 41 113 72 165 12 19 32 63 45 98 28 72 64 142 99 191 14 19
25 42 25 51 0 9 9 25 20 35 12 10 29 37 39 59 10 23 25 47 34 55 10 7 17 19
17 27 0 7 20 38 44 67 24 30 55 72 69 93 14 22 48 63 76 91 27 29 62 68 77 88
14 19 31 35 36 35 6 0 36 27 67 60 32 33 63 60 69 60 6 0 19 11 27 24 9 14 30
29 46 35 16 6 49 26 73 46 24 19 49 35 56 35 7 0 27 9 44 19 17 11 66 29 108
40 42 11 85 24 95 29 10 6 45 13 78 17 33 4 67 13 75 20 10 9 28 11 55 6 22
-4 65 -3 95 1 56 9 550 11 605 3 17 -2 52 -7 80 -11 27 -3 52 -9 55 -13 3 -5
23 -11 45 -15 35 -6 104 -29 170 -56 11 -5 52 -14 90 -20 39 -7 75 -18 81 -26
13 -16 101 -47 114 -39 5 3 12 0 16 -6 4 -6 48 -31 99 -55 64 -31 95 -51 103
-69 6 -14 18 -25 26 -25 12 0 86 -80 86 -94 0 -4 12 -25 27 -49 64 -100 81
-136 93 -199 5 -26 25 -79 45 -117 19 -39 35 -84 35 -100 0 -16 5 -31 11 -33
6 -2 14 -21 19 -43 7 -36 39 -124 61 -167 5 -10 9 -28 9 -40 0 -12 6 -29 14
-37 8 -9 20 -45 27 -81 7 -36 19 -72 26 -81 7 -8 13 -26 13 -40 0 -13 11 -46
24 -74 24 -49 44 -119 53 -180 2 -16 13 -48 23 -70 18 -38 28 -89 34 -165 1
-19 14 -58 28 -87 15 -28 24 -54 21 -57 -8 -8 17 -106 40 -156 11 -24 20 -52
20 -62 -1 -10 2 -18 7 -18 29 0 68 -173 50 -223 -9 -26 -7 -33 10 -49 10 -10
28 -18 40 -18 26 0 27 -31 0 -55 -19 -17 -19 -18 1 -57 11 -22 19 -47 18 -56
-1 -9 1 -25 5 -34 4 -9 3 -25 -2 -35 -5 -10 -15 -42 -22 -71 -11 -46 -10 -55
4 -71 15 -16 15 -19 1 -31 -16 -13 -21 -60 -6 -60 5 0 7 -9 4 -19 -3 -10 0
-28 6 -40 9 -17 7 -29 -9 -63 -18 -37 -18 -43 -5 -51 12 -7 13 -12 3 -30 -7
-12 -13 -35 -14 -52 -2 -38 -11 -76 -34 -145 -19 -55 -21 -69 -21 -168 0 -32
-6 -63 -15 -77 -9 -13 -13 -29 -9 -36 5 -6 -9 -27 -34 -49 -36 -33 -40 -42
-35 -69 4 -16 3 -38 -1 -48 -5 -10 -9 -24 -11 -31 -1 -8 -14 -31 -28 -53 l-26
-39 27 -6 c47 -11 262 -122 311 -161 26 -20 68 -57 95 -82 l47 -45 0 2187 0
2187 -2300 0 -2300 0 0 -2300z"/>
<path d="M3175 4230 c-6 -29 -37 -56 -53 -46 -5 3 -23 -4 -40 -14 -29 -18 -32
-24 -32 -70 0 -37 4 -50 14 -50 10 0 13 -8 10 -25 -3 -17 0 -25 10 -25 15 0
42 82 32 98 -3 5 2 12 12 14 9 3 20 6 24 7 61 19 69 19 105 0 24 -13 49 -18
66 -15 18 4 30 1 33 -8 3 -8 14 -16 25 -19 13 -3 19 -14 19 -32 0 -18 6 -29
20 -32 11 -3 20 -14 20 -24 0 -10 8 -23 19 -28 22 -12 111 -165 111 -192 0
-10 5 -21 10 -24 6 -4 7 -12 3 -18 -4 -7 -6 -20 -5 -29 2 -10 -2 -18 -8 -18
-17 0 -60 51 -60 71 0 10 -9 23 -20 29 -12 6 -20 21 -20 35 0 14 -5 25 -12 25
-6 0 -34 17 -62 38 -28 22 -66 45 -83 52 -18 7 -33 16 -33 21 0 5 -7 9 -15 9
-18 0 -20 -21 -3 -38 9 -9 9 -12 -3 -12 -8 0 -20 5 -27 12 -15 15 -28 3 -37
-34 -7 -26 -5 -28 22 -28 22 0 29 -5 30 -20 1 -11 8 -26 15 -34 7 -7 20 -23
28 -35 8 -11 23 -21 32 -21 10 0 24 -11 30 -25 6 -14 16 -25 23 -25 16 0 53
29 38 30 -8 0 -13 13 -13 33 0 17 -4 37 -8 43 -9 13 -97 54 -115 54 -8 0 -14
6 -14 14 0 12 6 12 41 0 63 -22 85 -35 92 -56 3 -11 19 -24 35 -30 16 -5 29
-17 29 -25 0 -8 8 -17 18 -20 10 -2 23 -19 30 -36 8 -18 18 -40 23 -49 14 -27
11 -34 -16 -46 -25 -11 -25 -12 -7 -45 15 -30 20 -33 38 -25 16 8 28 6 47 -6
22 -15 26 -15 40 -1 36 35 26 144 -19 210 -8 11 -14 36 -14 57 0 21 -5 38 -11
38 -7 0 -9 10 -5 25 5 20 0 31 -29 57 -21 18 -34 37 -31 45 11 28 -37 87 -87
108 -23 9 -37 23 -41 41 -5 19 -12 25 -25 21 -25 -6 -51 10 -51 33 0 13 -9 22
-27 26 -16 4 -41 16 -58 29 -51 37 -53 37 -60 5z"/>
<path d="M1485 4220 c-3 -5 -23 -17 -43 -27 -32 -14 -108 -66 -122 -83 -3 -4
-20 -15 -38 -25 -32 -20 -37 -35 -12 -43 7 -3 10 0 6 7 -8 12 40 35 54 26 4
-3 14 2 21 11 20 25 96 74 113 74 11 0 16 -9 16 -26 0 -17 6 -28 20 -31 33 -9
23 -25 -10 -18 -26 6 -42 -1 -101 -41 -50 -34 -67 -50 -59 -58 8 -8 13 -7 19
3 11 17 73 23 83 8 8 -13 80 35 102 68 8 13 17 47 18 77 3 48 1 53 -19 56 -13
2 -23 10 -23 18 0 16 -16 19 -25 4z"/>
<path d="M2063 4148 c-25 -32 -26 -40 -4 -29 11 7 21 18 21 26 0 18 -5 19 -17
3z"/>
<path d="M2686 4134 c-5 -14 -4 -15 9 -4 17 14 19 20 6 20 -5 0 -12 -7 -15
-16z"/>
<path d="M2579 4138 c-6 -21 -5 -38 2 -38 5 0 9 9 9 20 0 16 -7 28 -11 18z"/>
<path d="M2220 4095 c0 -8 7 -15 16 -15 14 0 14 3 4 15 -7 8 -14 15 -16 15 -2
0 -4 -7 -4 -15z"/>
<path d="M2517 4082 c-18 -19 -23 -52 -9 -52 8 0 16 14 40 63 7 14 -15 7 -31
-11z"/>
<path d="M2372 4063 c-7 -12 -8 -24 -3 -27 12 -8 41 4 41 16 0 5 -4 7 -9 3 -5
-3 -11 3 -13 12 -3 16 -5 15 -16 -4z"/>
<path d="M1865 4040 c-3 -5 -1 -10 4 -10 6 0 11 5 11 10 0 6 -2 10 -4 10 -3 0
-8 -4 -11 -10z"/>
<path d="M2768 4043 c6 -2 18 -2 25 0 6 3 1 5 -13 5 -14 0 -19 -2 -12 -5z"/>
<path d="M2820 3994 c0 -8 5 -12 10 -9 6 3 10 10 10 16 0 5 -4 9 -10 9 -5 0
-10 -7 -10 -16z"/>
<path d="M1273 3951 c1 -5 -7 -17 -18 -28 -23 -21 -43 -51 -51 -75 -4 -10 -11
-18 -16 -18 -5 0 -7 -4 -4 -9 3 -4 -3 -16 -14 -26 -23 -21 -27 -40 -7 -32 8 3
14 -1 14 -9 0 -8 -6 -13 -14 -10 -17 7 -44 -4 -37 -15 3 -5 0 -9 -6 -9 -6 0
-8 -5 -4 -11 3 -6 1 -15 -6 -19 -7 -4 -14 -22 -16 -40 -2 -17 -6 -35 -9 -40
-3 -5 -2 -11 2 -13 15 -10 56 35 69 75 4 10 15 20 25 23 10 4 19 11 19 16 0 5
8 9 18 10 13 0 12 2 -5 9 -13 5 -23 14 -23 20 0 12 2 12 34 0 15 -5 26 -6 26
-1 0 5 -13 12 -30 16 -26 6 -28 9 -17 26 14 22 29 26 21 5 -7 -18 58 -17 75 1
15 16 -2 18 -30 3 -26 -14 -26 13 -1 38 10 10 16 24 14 32 -3 9 1 11 11 7 14
-5 15 -3 4 13 -9 16 -9 24 1 40 16 27 15 30 -8 30 -11 0 -19 -4 -17 -9z m-83
-226 c0 -2 -9 -9 -20 -15 -12 -6 -20 -7 -20 -1 0 5 8 12 18 14 9 3 18 5 20 6
1 0 2 -1 2 -4z m-60 -65 c0 -5 -2 -10 -4 -10 -3 0 -8 5 -11 10 -3 6 -1 10 4
10 6 0 11 -4 11 -10z"/>
<path d="M2892 3939 c-7 -11 -10 -24 -7 -29 9 -15 65 -12 65 3 0 8 4 7 11 -3
9 -13 10 -13 6 0 -2 9 -13 14 -26 12 -14 -2 -24 3 -29 17 l-7 21 -13 -21z"/>
<path d="M1788 3928 c9 -9 15 -9 24 0 9 9 7 12 -12 12 -19 0 -21 -3 -12 -12z"/>
<path d="M1315 3850 c3 -5 1 -10 -4 -10 -6 0 -11 -4 -11 -10 0 -17 14 -11 28
10 10 17 10 20 -4 20 -8 0 -12 -4 -9 -10z"/>
<path d="M3105 3830 c4 -6 11 -8 16 -5 14 9 11 15 -7 15 -8 0 -12 -5 -9 -10z"/>
<path d="M1022 3760 c-17 -28 -15 -32 8 -13 20 18 26 33 12 33 -4 0 -13 -9
-20 -20z"/>
<path d="M3405 3690 c-10 -17 4 -47 30 -64 14 -9 25 -12 25 -6 0 5 -5 10 -12
10 -6 0 -9 3 -5 6 6 6 -19 64 -28 64 -2 0 -7 -5 -10 -10z"/>
<path d="M983 3642 c-24 -21 -31 -34 -29 -59 2 -41 7 -46 41 -33 22 8 30 8 36
-2 4 -7 11 -9 16 -5 4 4 1 18 -7 30 -8 12 -16 38 -19 59 l-6 36 -32 -26z"/>
<path d="M2960 3650 c0 -5 5 -10 11 -10 5 0 7 5 4 10 -3 6 -8 10 -11 10 -2 0
-4 -4 -4 -10z"/>
<path d="M2327 3551 c-26 -47 -29 -86 -12 -138 2 -7 -2 -13 -10 -13 -8 0 -15
-4 -15 -9 0 -6 -21 -16 -47 -23 -44 -12 -48 -16 -50 -47 -3 -33 -2 -33 30 -28
26 4 39 -1 65 -24 37 -33 39 -42 13 -68 -22 -22 -61 -37 -61 -23 0 13 -47 2
-61 -14 -21 -25 5 -89 46 -113 41 -24 46 -57 15 -101 -25 -34 -42 -147 -27
-172 17 -26 -6 -66 -45 -76 -42 -10 -49 -47 -19 -96 12 -18 21 -40 21 -48 0
-9 9 -27 21 -42 23 -29 20 -49 -9 -65 -16 -8 -24 -4 -48 29 -22 30 -36 40 -58
40 -23 0 -27 -3 -20 -17 5 -10 7 -38 6 -63 -3 -67 13 -95 68 -121 27 -13 51
-30 52 -39 2 -8 -7 -33 -19 -55 -13 -22 -23 -46 -23 -54 0 -16 38 -51 56 -51
19 0 27 -38 14 -70 -8 -21 -26 -33 -67 -49 -30 -12 -61 -21 -69 -21 -20 0 -18
-4 19 -41 17 -18 46 -35 62 -39 26 -5 30 -10 28 -36 -3 -28 -3 -44 -3 -133 0
-24 5 -50 11 -57 7 -8 9 -30 5 -56 -10 -67 -7 -121 9 -145 20 -30 19 -62 -5
-98 -11 -16 -20 -40 -20 -53 0 -13 -11 -39 -25 -59 -25 -37 -25 -53 0 -53 24
0 27 -19 7 -45 -11 -14 -23 -45 -26 -70 -4 -25 -13 -45 -19 -45 -7 0 -30 9
-51 21 -30 16 -41 18 -47 8 -4 -7 -5 -18 -1 -24 24 -40 49 -65 66 -65 46 0 50
-14 30 -91 -3 -10 -19 -20 -38 -23 -19 -4 -40 -14 -47 -22 -11 -14 -6 -23 39
-65 29 -27 52 -55 52 -62 0 -8 -18 -28 -41 -46 -34 -28 -39 -37 -34 -61 3 -15
24 -47 46 -71 21 -23 39 -49 39 -58 -1 -20 -24 -51 -39 -51 -6 0 -11 -4 -11
-9 0 -5 -9 -11 -20 -14 -31 -8 -24 -30 17 -52 35 -19 82 -83 83 -112 0 -7 -8
-13 -18 -13 -10 0 -39 -7 -64 -15 -35 -12 -45 -21 -44 -36 0 -11 11 -26 23
-32 11 -7 47 -36 78 -66 54 -51 55 -54 39 -72 -17 -18 -16 -19 24 -19 45 0 51
6 26 24 -13 10 -12 14 10 35 21 20 30 23 48 14 13 -6 46 -15 74 -20 l51 -9 -2
39 c-2 24 -9 43 -19 49 -9 5 -16 15 -16 22 0 22 -35 46 -67 46 -22 0 -33 7
-43 26 -12 22 -12 35 4 94 17 67 17 69 -3 109 -12 22 -21 51 -21 65 0 13 -5
26 -11 28 -6 2 -12 36 -14 76 -3 57 -1 74 10 79 8 3 15 11 15 18 0 7 17 23 37
35 32 19 35 23 20 31 -22 13 -47 61 -47 92 0 50 48 61 115 27 22 -11 47 -20
56 -20 23 0 39 -22 46 -65 6 -38 17 -46 81 -58 31 -6 32 -5 32 26 0 18 -6 39
-12 45 -17 17 9 35 37 27 11 -3 38 -9 60 -12 l40 -5 -36 36 c-21 20 -39 49
-43 68 -12 63 -72 73 -101 17 -13 -24 -22 -29 -53 -29 -37 0 -74 18 -102 52
-8 10 -26 19 -39 21 -26 4 -60 43 -61 70 0 23 37 36 75 26 16 -5 36 -9 42 -9
20 0 15 39 -7 67 -22 29 -14 57 20 68 27 9 27 64 -1 98 -15 20 -18 35 -14 59
4 20 0 47 -9 70 -24 56 -21 78 10 78 22 0 24 3 18 23 -12 37 -12 63 -2 110 10
50 37 69 84 61 106 -19 101 -20 108 25 3 23 10 41 15 41 12 0 37 82 44 146 6
55 74 68 110 22 10 -13 42 -48 72 -79 30 -31 52 -59 48 -63 -12 -11 -33 -6
-52 13 -15 15 -26 18 -48 12 -23 -6 -30 -16 -40 -57 -14 -53 -26 -66 -91 -96
l-44 -20 28 -29 c27 -28 27 -31 15 -62 -8 -17 -14 -50 -15 -72 -1 -37 1 -40
32 -46 39 -8 41 -10 47 -39 2 -12 11 -33 20 -47 11 -16 14 -34 9 -59 -5 -28
-1 -42 21 -74 23 -33 25 -42 15 -55 -17 -20 -46 -19 -68 3 -10 10 -35 26 -57
36 -46 22 -69 13 -73 -31 -5 -49 12 -78 58 -96 39 -15 42 -15 57 3 16 19 37
17 61 -7 7 -7 20 -13 28 -13 8 0 22 -4 32 -10 9 -5 29 -14 44 -19 20 -8 25
-15 21 -30 -6 -22 -16 -24 -90 -21 -45 2 -54 -11 -34 -48 5 -9 12 -36 16 -59
6 -41 6 -42 -29 -57 -25 -10 -36 -21 -36 -36 0 -11 -5 -29 -11 -39 -10 -15
-18 -17 -57 -9 -25 4 -49 5 -53 1 -4 -5 -10 -29 -13 -54 -6 -42 -4 -48 19 -63
14 -9 25 -23 25 -31 0 -8 9 -19 20 -25 11 -6 20 -17 20 -25 0 -12 -16 -15 -80
-15 -73 0 -80 -2 -80 -20 0 -19 45 -50 73 -50 8 0 22 -10 33 -21 10 -12 38
-35 62 -51 24 -16 42 -37 42 -48 0 -29 11 -50 26 -50 15 0 34 -30 34 -53 0
-31 -87 -27 -197 8 -8 3 -12 -3 -10 -16 4 -21 52 -59 77 -59 23 -1 82 -59 74
-73 -4 -6 -4 -9 1 -5 4 4 13 3 20 -2 25 -20 112 -19 99 1 -7 12 50 11 62 -1
20 -20 109 -47 129 -39 25 9 61 11 52 3 -3 -4 -2 -15 4 -25 8 -17 22 -19 104
-19 108 0 131 12 121 62 -6 31 16 50 36 30 8 -8 17 -8 30 -1 12 6 18 6 18 -1
0 -5 -7 -10 -16 -10 -11 0 -14 -8 -12 -25 2 -15 -4 -30 -17 -39 -19 -14 -17
-15 33 -16 40 0 52 4 52 15 0 8 7 15 15 15 8 0 15 5 15 10 0 6 9 10 20 10 12
0 20 7 20 16 0 11 -6 15 -18 12 -21 -6 -54 23 -34 30 7 2 9 8 6 14 -4 6 4 19
17 29 l24 18 -30 6 c-38 8 -75 35 -57 42 6 3 12 10 12 16 0 27 94 60 113 40 4
-3 18 -8 32 -9 22 -2 25 0 20 19 -8 25 -41 57 -60 57 -20 0 -13 19 29 83 39
58 39 59 23 92 -9 19 -29 41 -45 49 -68 35 -77 110 -19 163 32 28 35 36 30 71
-4 26 0 51 11 72 26 52 30 95 12 123 -16 23 -15 25 8 40 13 9 30 29 38 44 12
25 12 32 -1 56 -9 15 -31 35 -50 45 -43 21 -49 37 -21 52 18 10 25 8 44 -12
67 -67 98 -81 113 -53 12 21 3 96 -11 94 -26 -3 -35 3 -50 33 -20 40 -20 44 4
78 22 30 16 65 -15 96 -8 9 -15 23 -15 31 0 9 -3 13 -7 10 -3 -4 -14 14 -23
40 -13 38 -22 48 -46 55 -16 4 -40 17 -52 29 -13 11 -26 18 -29 15 -9 -9 -53
35 -53 52 0 11 -9 13 -42 8 -67 -9 -79 -8 -99 10 -20 18 -26 59 -10 68 5 4 32
8 59 11 41 4 51 2 58 -12 9 -23 11 -29 13 -48 0 -8 8 -15 17 -15 8 0 12 5 9
10 -3 6 -1 10 4 10 6 0 11 -4 11 -10 0 -5 7 -10 15 -10 8 0 15 -4 15 -10 0
-11 77 -48 120 -56 25 -5 30 -3 35 17 3 13 4 42 3 64 l-3 40 -40 -3 c-45 -4
-69 14 -80 61 -7 28 -7 28 27 22 43 -8 64 13 60 60 -2 23 4 41 22 62 31 37 31
41 6 73 -26 34 -26 70 0 70 15 0 20 7 20 25 0 37 -27 31 -51 -10 -12 -19 -25
-35 -29 -35 -5 0 -15 -3 -24 -6 -10 -4 -16 -1 -16 9 0 8 -5 17 -11 19 -9 3 -8
10 1 25 12 19 11 25 -12 56 -24 30 -25 37 -14 59 12 23 11 28 -15 56 -16 17
-29 37 -28 44 1 26 37 73 53 72 13 -2 16 5 14 24 -4 34 -53 49 -81 24 -17 -15
-20 -15 -49 1 -18 10 -39 15 -54 11 -17 -5 -24 -2 -24 9 0 8 -6 18 -12 20 -10
4 -10 6 0 6 6 1 12 7 12 14 0 7 9 18 21 25 28 18 18 58 -24 95 -30 27 -31 30
-13 40 57 36 58 39 41 81 -9 21 -18 54 -21 72 -5 40 -29 80 -56 95 -16 8 -18
18 -14 52 2 23 7 49 10 57 4 9 0 24 -8 35 -14 19 -15 19 -16 2 0 -10 -4 -16
-9 -12 -6 3 -15 -4 -21 -15 -13 -25 -21 -25 -50 0 -13 11 -31 20 -40 20 -19 0
-40 -39 -40 -73 0 -13 -5 -28 -12 -35 -9 -9 -9 -12 0 -12 7 0 12 -9 12 -20 0
-12 -7 -20 -17 -20 -14 0 -15 -2 -4 -9 7 -5 10 -14 7 -20 -4 -6 -2 -11 3 -11
6 0 11 9 11 20 0 11 4 20 9 20 16 0 61 -41 61 -56 0 -8 5 -14 10 -14 12 0 13
-37 1 -44 -22 -14 -68 6 -78 35 -12 31 -48 40 -71 17 -9 -9 -12 -7 -12 10 0
12 -4 22 -10 22 -5 0 -10 15 -10 33 0 29 -5 34 -47 51 -45 19 -46 19 -59 1 -8
-10 -14 -23 -14 -27 0 -23 44 -91 68 -106 37 -23 40 -50 7 -62 -14 -5 -31 -9
-38 -7 -7 1 -12 -9 -12 -23 0 -18 6 -25 20 -26 30 -2 70 -20 90 -40 10 -10 30
-19 44 -20 24 -1 25 -4 23 -41 -3 -31 1 -44 15 -51 10 -6 14 -14 10 -18 -4 -5
-17 -3 -27 4 -11 7 -28 12 -39 12 -10 0 -29 9 -42 19 -14 10 -41 26 -62 34
-22 10 -41 26 -47 41 -6 17 -19 27 -43 31 -24 5 -38 16 -52 41 -21 39 -31 35
-40 -18 -7 -34 -4 -38 33 -66 23 -16 58 -51 78 -78 21 -27 44 -55 51 -62 14
-14 15 -18 18 -67 5 -57 -43 -76 -69 -27 -18 35 -89 92 -115 92 -11 0 -32 -11
-47 -25 -15 -14 -32 -25 -39 -25 -19 0 -45 -45 -45 -78 0 -51 -21 -82 -56 -82
-42 0 -66 36 -75 112 -4 31 -16 76 -28 100 -41 85 -37 138 12 179 18 15 18 18
3 64 -11 32 -15 62 -10 92 5 31 2 50 -10 67 -18 28 -9 66 31 124 30 45 29 82
-1 111 -15 14 -28 44 -36 80 -12 56 -11 58 19 109 37 62 39 93 10 134 -12 16
-27 48 -34 71 -6 22 -16 42 -21 44 -5 2 -21 -19 -37 -46z m873 -632 c0 -18 -2
-20 -15 -9 -13 11 -13 15 -3 21 18 12 18 12 18 -12z m-175 -167 c6 -4 15 -16
21 -27 6 -11 21 -21 33 -23 20 -3 40 -46 27 -59 -7 -7 -53 15 -74 35 -7 6 -17
12 -21 12 -4 0 -8 16 -9 35 -3 35 3 42 23 27z m96 -224 c12 -7 35 -25 51 -39
57 -51 68 -59 68 -51 1 16 30 -33 30 -50 0 -20 -28 -36 -39 -22 -3 5 -28 25
-56 44 -55 38 -84 68 -85 88 0 6 -5 12 -11 12 -8 0 -8 5 1 15 15 18 15 18 41
3z m-420 -98 c10 -6 19 -17 19 -25 0 -8 5 -15 11 -15 5 0 -2 -16 -18 -36 -24
-32 -27 -44 -25 -103 1 -36 7 -87 14 -112 10 -42 9 -51 -10 -84 -12 -20 -22
-42 -22 -49 0 -9 -17 -14 -55 -15 -30 0 -55 3 -55 7 0 4 -22 22 -50 40 -60 39
-64 65 -20 115 17 19 30 41 30 48 1 19 37 85 44 82 15 -7 25 -1 31 16 4 13 11
18 22 14 13 -5 15 -2 9 13 -5 10 -8 24 -7 29 1 6 2 21 4 35 4 49 33 63 78 40z
m625 -68 c19 -12 52 -78 45 -90 -3 -6 -18 -15 -32 -20 -23 -9 -27 -7 -42 21
-30 57 -37 85 -24 91 18 7 41 6 53 -2z m-258 -23 c22 -1 19 -3 -12 -10 -45
-11 -54 -7 -35 14 8 8 16 11 17 6 2 -5 16 -9 30 -10z m-168 -93 c0 -6 3 -21 6
-32 4 -16 0 -23 -18 -27 -12 -4 -27 -2 -32 3 -14 14 -46 12 -46 -2 0 -6 -2 -9
-4 -7 -3 2 -1 20 3 39 5 25 13 36 31 40 31 8 60 1 60 -14z m385 -26 c14 0 19
-14 18 -47 -1 -7 8 -13 18 -13 11 0 19 -4 19 -10 0 -5 8 -10 18 -10 10 0 29
-12 43 -26 23 -25 24 -26 4 -37 -39 -21 -72 -18 -89 9 -9 13 -21 22 -26 19 -6
-4 -10 1 -10 9 0 9 -4 16 -9 16 -16 0 -73 79 -75 105 l-3 24 38 -20 c21 -10
45 -19 54 -19z m-258 -61 c6 -6 8 -19 6 -30 -5 -18 -7 -19 -29 -4 -13 8 -30
15 -38 15 -10 0 -13 6 -10 15 7 17 55 20 71 4z m116 -77 c21 -19 13 -28 -34
-36 -39 -7 -51 1 -64 43 -7 22 -6 23 36 16 24 -4 52 -14 62 -23z m348 -29 c43
-25 39 -53 -8 -53 -40 0 -103 -19 -103 -32 0 -4 5 -8 11 -8 5 0 7 -4 4 -10 -3
-5 1 -22 9 -38 18 -34 7 -57 -23 -47 -11 3 -21 10 -21 16 0 5 -18 12 -41 15
-66 11 -94 56 -43 68 15 4 39 4 53 1 34 -7 66 23 56 54 -3 12 -12 21 -18 22
-17 1 54 27 76 28 11 1 32 -7 48 -16z m-598 -40 c51 -10 64 -83 14 -83 -24 0
-87 54 -87 75 0 18 12 26 29 20 9 -4 29 -9 44 -12z m-338 -75 c19 -8 25 -19
25 -43 0 -42 -31 -69 -98 -86 -46 -11 -55 -11 -63 1 -9 12 -11 13 -16 1 -4
-10 -7 -10 -13 -1 -12 19 1 50 21 50 10 0 38 20 63 45 52 51 47 49 81 33z
m527 -23 c7 -9 18 -22 25 -29 18 -21 -4 -37 -35 -25 -35 13 -53 39 -38 55 15
18 33 17 48 -1z m2 -224 c3 -4 17 -6 32 -3 21 4 25 1 22 -14 -3 -15 -11 -18
-43 -16 -44 4 -61 14 -51 31 9 13 33 14 40 2z m-220 -51 c20 0 27 -25 12 -46
-10 -13 -22 -16 -50 -11 -21 3 -44 11 -52 18 -39 32 9 81 53 53 12 -8 29 -14
37 -14z m391 -26 c36 -36 -15 -73 -58 -42 -18 13 -14 54 3 43 5 -3 11 -1 15 5
9 14 21 12 40 -6z m211 -91 c-2 -3 2 -20 10 -38 11 -28 11 -35 0 -44 -18 -15
-62 23 -70 62 -5 22 -2 29 16 36 21 8 55 -5 44 -16z m-390 -48 c-20 -21 -33
-19 -39 6 -8 30 2 52 18 39 9 -8 15 -6 21 7 6 15 8 13 12 -10 2 -15 -3 -34
-12 -42z m508 -61 c25 -24 19 -41 -15 -48 -53 -10 -59 -8 -59 22 0 16 3 32 7
35 12 13 51 7 67 -9z m-728 -20 c10 -38 -8 -48 -35 -20 -25 27 -21 46 9 46 13
0 22 -9 26 -26z m254 -164 c0 -5 -9 -10 -20 -10 -11 0 -20 5 -20 10 0 6 9 10
20 10 11 0 20 -4 20 -10z m276 -23 c9 -9 -29 -25 -66 -28 -38 -2 -93 19 -84
32 5 9 141 5 150 -4z m-419 -56 c10 -15 10 -21 0 -25 -9 -3 -8 -7 3 -15 21
-15 5 -14 -23 2 -26 14 -37 27 -37 45 0 19 44 14 57 -7z m193 -95 c0 -40 -24
-65 -48 -49 -39 24 -18 83 30 83 14 0 18 -8 18 -34z m346 13 c8 -13 -34 -49
-56 -48 -10 0 -11 2 -2 6 6 2 12 13 12 23 0 26 33 39 46 19z m-153 -108 c12
-9 21 -8 45 6 38 22 51 12 24 -18 -15 -15 -29 -20 -47 -17 -14 3 -28 1 -31 -3
-3 -5 4 -9 15 -9 12 0 21 -7 21 -15 0 -20 -5 -19 -36 8 -14 12 -27 20 -28 17
-5 -9 -36 22 -36 36 0 17 52 13 73 -5z m-383 -41 c-20 -12 -32 -2 -17 15 8 8
16 10 22 4 6 -7 5 -13 -5 -19z m470 -40 c0 -5 -4 -10 -9 -10 -6 0 -13 5 -16
10 -3 6 1 10 9 10 9 0 16 -4 16 -10z m-526 -72 c8 -31 -15 -52 -48 -44 -19 5
-26 13 -26 30 0 40 64 52 74 14z m326 -28 c0 -11 5 -20 10 -20 6 0 10 -4 10
-10 0 -14 -33 -12 -55 4 -23 16 -14 46 15 46 13 0 20 -7 20 -20z m-443 -82
c-3 -8 -6 -5 -6 6 -1 11 2 17 5 13 3 -3 4 -12 1 -19z m-55 -37 c41 -33 49 -44
46 -60 -5 -27 -50 -24 -86 5 -30 25 -42 61 -25 77 9 9 40 -1 65 -22z m253 -1
c24 -26 13 -36 -48 -45 l-49 -7 34 36 c18 20 36 36 39 36 3 0 14 -9 24 -20z
m446 -13 c-7 -7 -20 -7 -43 1 -18 7 -23 10 -12 8 12 -2 28 0 35 5 17 10 34 0
20 -14z m-756 -107 c3 -5 1 -10 -4 -10 -6 0 -11 5 -11 10 0 6 2 10 4 10 3 0 8
-4 11 -10z m596 -4 c-9 -11 -9 -15 1 -18 7 -3 8 -7 3 -10 -6 -3 -21 -1 -35 4
-24 9 -24 10 -6 24 27 19 53 19 37 0z m-509 -22 c34 -11 48 -22 52 -40 4 -13
13 -24 21 -24 20 0 19 -36 -2 -44 -9 -4 -25 2 -38 14 -12 11 -31 20 -42 20
-22 0 -83 45 -83 61 0 5 10 14 23 19 12 5 22 9 23 9 0 1 21 -6 46 -15z m708
-36 c36 -26 38 -51 8 -72 -28 -20 -62 -20 -78 -1 -7 8 -20 15 -30 15 -10 0
-21 7 -24 16 -5 13 -2 15 15 11 22 -6 59 19 59 40 0 19 17 16 50 -9z m-490
-18 c0 -5 -2 -10 -4 -10 -3 0 -8 5 -11 10 -3 6 -1 10 4 10 6 0 11 -4 11 -10z
m190 -28 c0 -14 -23 -32 -42 -32 -21 0 -22 6 -5 25 13 15 47 20 47 7z m-300
-93 c0 -5 -4 -9 -9 -9 -5 0 -16 -3 -25 -6 -11 -4 -16 0 -16 14 0 15 5 18 25
14 14 -2 25 -8 25 -13z m54 -34 c15 -8 34 -15 41 -15 15 0 65 -45 65 -60 0
-13 -87 -13 -95 0 -3 6 -14 10 -23 10 -9 0 -32 9 -51 21 -32 19 -33 21 -16 40
22 23 40 24 79 4z m452 -21 c0 -5 4 -17 9 -27 12 -29 -2 -31 -33 -5 -26 22
-28 26 -13 36 18 12 36 10 37 -4z m-549 -100 c26 -9 51 -21 55 -27 19 -30 -46
-67 -76 -43 -13 10 -40 86 -31 86 3 0 26 -7 52 -16z m412 -50 c10 -9 -24 -34
-45 -34 -13 0 -24 2 -24 4 0 2 -3 11 -6 19 -8 22 53 31 75 11z"/>
<path d="M2770 3529 c0 -5 5 -7 10 -4 6 3 10 8 10 11 0 2 -4 4 -10 4 -5 0 -10
-5 -10 -11z"/>
<path d="M2883 3450 c-36 -15 -31 -55 9 -66 25 -7 34 -17 40 -43 10 -37 20
-52 62 -90 16 -14 40 -36 53 -48 13 -13 35 -23 48 -23 14 0 25 -4 25 -10 0 -5
5 -10 10 -10 6 0 10 20 10 43 0 31 -6 49 -20 62 -26 24 -25 34 5 45 25 10 34
30 13 30 -6 0 -19 7 -29 16 -23 21 -42 9 -36 -22 2 -14 0 -27 -4 -30 -5 -3 -9
0 -9 5 0 6 -6 11 -13 11 -24 0 -49 37 -42 59 3 12 11 21 16 21 6 0 9 10 7 23
-2 16 -10 22 -30 22 -14 0 -30 3 -34 8 -10 9 -53 8 -81 -3z"/>
<path d="M3195 3410 c-7 -12 18 -24 37 -18 8 3 5 9 -9 16 -14 8 -24 9 -28 2z"/>
<path d="M2854 3208 c3 -7 9 -21 12 -30 4 -10 10 -18 15 -18 5 0 9 -9 9 -20 0
-10 10 -25 23 -31 12 -7 25 -17 29 -22 4 -6 13 -4 24 7 11 12 28 17 50 14 29
-3 35 0 43 23 13 39 -4 52 -52 37 -33 -10 -39 -9 -72 16 -19 15 -40 24 -45 21
-6 -3 -10 -1 -10 4 0 6 -7 11 -16 11 -9 0 -13 -5 -10 -12z"/>
<path d="M3300 3090 c-8 -15 -5 -24 17 -45 15 -14 33 -25 39 -25 6 0 26 -17
43 -37 29 -33 33 -35 47 -21 13 12 14 20 5 37 -7 11 -18 21 -26 21 -17 0 -65
39 -65 53 0 10 -30 36 -42 37 -4 0 -12 -9 -18 -20z"/>
<path d="M2729 3021 c-21 -17 -22 -20 -7 -26 20 -8 61 12 55 28 -6 19 -23 18
-48 -2z"/>
<path d="M2963 3017 c-13 -5 -23 -14 -23 -19 0 -13 18 -10 24 5 3 6 3 2 0 -10
-4 -18 -1 -23 14 -23 14 0 20 7 20 25 0 31 -7 35 -35 22z"/>
<path d="M2668 2939 c-10 -5 -18 -16 -18 -23 0 -7 -13 -25 -30 -41 -28 -27
-40 -55 -22 -55 15 0 112 98 112 113 0 19 -17 21 -42 6z"/>
<path d="M2079 2935 c-1 -5 -1 -14 0 -18 1 -5 -2 -6 -7 -3 -9 6 -52 -46 -52
-63 0 -6 11 -14 26 -17 30 -8 53 17 54 56 0 25 -18 64 -21 45z"/>
<path d="M3480 2751 c0 -7 -8 -11 -18 -9 -9 1 -36 -12 -59 -31 -36 -29 -40
-36 -30 -52 16 -25 32 -24 43 2 6 12 25 27 44 33 36 11 51 39 31 59 -8 8 -11
8 -11 -2z"/>
<path d="M3533 2672 c-6 -4 -10 -23 -8 -42 1 -23 -3 -39 -14 -46 -14 -11 -13
-17 9 -62 27 -54 61 -75 99 -60 37 13 24 77 -24 123 -23 21 -35 40 -31 50 6
16 -2 45 -13 45 -3 0 -11 -4 -18 -8z"/>
<path d="M2553 2634 c-17 -7 -34 -18 -38 -24 -11 -18 4 -59 24 -70 17 -8 23
-3 45 34 14 25 26 49 26 54 0 17 -24 19 -57 6z"/>
<path d="M3796 2504 c-8 -21 1 -34 25 -34 14 0 19 7 19 25 0 29 -34 36 -44 9z"/>
<path d="M1790 2449 c0 -12 5 -19 12 -17 18 6 20 25 3 31 -10 5 -15 0 -15 -14z"/>
<path d="M3546 2402 c-32 -52 -41 -152 -15 -168 14 -8 59 23 59 42 0 8 7 17
15 20 20 8 19 27 -5 74 -19 37 -42 51 -54 32z"/>
<path d="M3780 2391 c0 -6 10 -33 22 -61 27 -63 50 -67 46 -8 -3 35 -8 45 -35
61 -19 11 -33 14 -33 8z"/>
<path d="M1693 2263 c-22 -8 -16 -87 8 -109 20 -18 21 -18 34 0 16 22 11 96
-7 107 -14 10 -17 10 -35 2z"/>
<path d="M3875 2260 c-10 -16 15 -40 41 -40 26 0 31 19 12 38 -15 15 -45 16
-53 2z"/>
<path d="M3780 2230 c0 -5 5 -10 10 -10 6 0 10 5 10 10 0 6 -4 10 -10 10 -5 0
-10 -4 -10 -10z"/>
<path d="M4025 2222 c-11 -2 -24 -8 -29 -13 -5 -4 -17 -4 -27 2 -23 12 -45 -1
-82 -49 -18 -24 -24 -39 -17 -46 5 -5 10 -18 10 -28 0 -11 7 -18 20 -18 22 0
27 -19 9 -37 -7 -7 -24 -7 -56 3 -50 15 -73 7 -73 -25 0 -10 -7 -26 -15 -37
-8 -10 -15 -32 -15 -47 0 -15 -7 -39 -16 -53 -9 -13 -14 -27 -11 -30 8 -8 47
6 47 16 0 5 10 20 23 33 12 13 30 35 40 48 9 13 17 18 17 12 0 -7 12 -11 27
-10 22 2 29 -3 31 -21 2 -13 14 -27 28 -32 20 -8 24 -16 24 -50 0 -36 -3 -40
-25 -40 -20 0 -25 6 -31 35 -3 19 -9 34 -13 33 -3 -1 -16 3 -28 10 -32 18 -72
-2 -73 -36 0 -8 8 -10 25 -6 32 8 65 -19 65 -52 0 -18 7 -25 28 -29 43 -10 56
-20 64 -52 4 -17 15 -36 23 -43 17 -14 18 -7 15 62 -1 27 4 39 18 47 27 14 34
37 20 67 -9 19 -9 30 0 45 7 10 12 30 12 43 0 14 5 28 10 31 12 8 13 55 1 73
-13 21 -51 -7 -51 -36 0 -13 -5 -32 -10 -43 -27 -50 -72 10 -50 66 7 17 13 48
14 70 1 31 5 40 21 43 45 7 65 25 65 58 0 37 -6 42 -35 36z"/>
<path d="M2040 2163 c-44 -18 -44 -73 0 -90 36 -13 46 -6 54 39 6 31 3 39 -13
47 -11 6 -21 11 -23 10 -2 0 -10 -3 -18 -6z"/>
<path d="M1968 1973 c7 -3 16 -2 19 1 4 3 -2 6 -13 5 -11 0 -14 -3 -6 -6z"/>
<path d="M3668 1928 c9 -9 7 -14 -6 -24 -16 -12 -16 -13 0 -14 18 0 28 18 20
38 -2 6 -9 12 -15 12 -8 0 -7 -4 1 -12z"/>
<path d="M3766 1801 c-21 -23 -20 -28 3 -34 14 -3 20 2 24 19 6 32 -6 38 -27
15z"/>
<path d="M3770 1735 c-10 -12 -10 -18 0 -30 7 -8 17 -15 22 -15 5 0 25 -12 44
-27 42 -31 56 -22 47 31 -5 35 -8 38 -34 32 -17 -3 -32 0 -39 9 -16 19 -24 19
-40 0z"/>
<path d="M3670 1703 c0 -12 -9 -38 -21 -57 -28 -48 -16 -64 22 -29 32 31 37
59 14 89 -14 19 -14 19 -15 -3z"/>
<path d="M2015 1690 c-4 -6 -10 -8 -15 -5 -5 3 -11 1 -14 -4 -4 -5 8 -21 26
-35 38 -29 55 -16 35 28 -13 28 -22 32 -32 16z"/>
<path d="M3900 1656 c0 -9 7 -16 16 -16 17 0 14 22 -4 28 -7 2 -12 -3 -12 -12z"/>
<path d="M1930 1651 c0 -10 30 -24 37 -17 3 3 2 9 -2 15 -8 13 -35 15 -35 2z"/>
<path d="M3922 1608 c2 -12 11 -24 21 -26 14 -3 18 1 15 20 -2 12 -11 24 -21
26 -14 3 -18 -1 -15 -20z"/>
<path d="M4000 1614 c0 -8 -17 -32 -37 -52 -31 -29 -35 -36 -20 -40 9 -2 17
-10 17 -17 0 -7 5 -15 11 -17 6 -2 2 -14 -10 -30 -12 -15 -21 -41 -21 -61 0
-23 -9 -46 -24 -64 -13 -15 -27 -44 -31 -63 -4 -19 -14 -46 -22 -58 -8 -14
-14 -42 -12 -65 2 -27 -5 -58 -19 -87 -16 -33 -22 -64 -22 -120 0 -73 0 -74
17 -50 23 33 63 192 52 206 -19 23 71 80 126 79 24 0 31 -5 33 -25 2 -14 9
-39 17 -55 12 -26 11 -37 -6 -89 -19 -54 -19 -60 -4 -76 15 -17 14 -21 -20
-59 -20 -22 -35 -48 -33 -58 1 -10 -1 -24 -6 -31 -15 -24 -13 -72 2 -72 9 0
12 6 8 16 -3 8 -2 13 3 10 9 -6 27 26 35 67 4 15 17 38 29 50 23 23 24 25 26
70 1 21 7 31 22 34 21 6 21 7 4 19 -19 14 -18 30 5 139 6 28 13 88 15 134 3
75 1 84 -16 88 -18 5 -21 11 -33 66 -5 19 -13 27 -29 28 -21 0 -21 1 -2 8 11
5 22 4 23 0 5 -13 79 -11 87 1 4 6 -7 26 -24 46 -17 19 -31 39 -31 44 0 13
-86 100 -99 100 -6 0 -11 -7 -11 -16z"/>
<path d="M3757 1594 c-4 -4 -7 -14 -7 -23 0 -11 3 -12 11 -4 6 6 10 16 7 23
-2 6 -7 8 -11 4z"/>
<path d="M623 1541 c-3 -12 -9 -21 -14 -21 -20 0 -7 -18 31 -43 33 -21 42 -23
53 -12 7 7 22 14 33 17 10 2 20 13 22 25 3 18 -4 24 -40 33 -24 6 -51 14 -61
16 -13 4 -20 -1 -24 -15z"/>
<path d="M1865 1540 c-3 -5 0 -10 8 -10 15 0 27 -40 27 -87 0 -22 3 -24 27
-18 16 4 29 8 31 10 7 6 -19 45 -29 45 -6 0 -9 7 -5 15 3 8 1 15 -3 15 -5 0
-7 9 -4 20 4 16 0 20 -20 20 -14 0 -29 -4 -32 -10z"/>
<path d="M3717 1543 c-12 -11 -8 -23 8 -23 8 0 15 7 15 15 0 16 -12 20 -23 8z"/>
<path d="M569 1439 c-1 -2 -3 -17 -5 -32 -2 -22 0 -27 12 -23 9 3 18 6 20 6
10 0 2 29 -11 40 -8 7 -16 11 -16 9z"/>
<path d="M3740 1421 c0 -18 18 -21 30 -6 10 13 9 15 -9 15 -11 0 -21 -4 -21
-9z"/>
<path d="M690 1345 c0 -3 18 -24 40 -46 43 -44 49 -40 26 16 -12 27 -21 35
-40 35 -15 0 -26 -2 -26 -5z"/>
<path d="M2000 1333 c1 -17 27 -55 32 -47 8 13 -9 54 -22 54 -5 0 -10 -3 -10
-7z"/>
<path d="M1622 1308 c2 -6 10 -14 16 -16 7 -2 10 2 6 12 -7 18 -28 22 -22 4z"/>
<path d="M1811 1273 c-28 -11 -61 -58 -55 -78 14 -52 15 -75 3 -75 -10 0 -10
-3 -1 -12 10 -10 15 -10 21 0 5 8 19 19 32 26 30 14 52 102 30 116 -8 4 -10
13 -7 19 8 12 0 13 -23 4z"/>
<path d="M793 1174 c9 -53 49 -184 57 -184 4 0 8 24 9 54 1 42 -4 67 -23 105
-34 66 -51 76 -43 25z"/>
<path d="M526 1075 c4 -8 10 -12 15 -9 11 6 2 24 -11 24 -5 0 -7 -7 -4 -15z"/>
<path d="M3630 1033 c0 -17 18 -34 38 -38 28 -5 30 20 3 35 -23 12 -41 13 -41
3z"/>
<path d="M1733 972 c-13 -2 -23 -6 -23 -10 1 -18 32 -45 76 -67 27 -14 61 -36
76 -50 27 -24 48 -32 48 -17 0 10 -41 90 -64 125 -19 28 -36 31 -113 19z"/>
<path d="M597 944 c-3 -19 2 -29 19 -41 21 -14 24 -23 24 -84 0 -72 0 -73 43
-83 26 -6 27 -5 22 26 -4 18 -13 40 -21 49 -11 12 -13 27 -9 51 7 36 -17 77
-55 98 -15 8 -19 5 -23 -16z"/>
<path d="M3604 888 c3 -7 9 -21 12 -30 4 -10 12 -18 20 -18 10 0 11 6 3 30 -6
17 -18 30 -26 30 -8 0 -12 -5 -9 -12z"/>
<path d="M3767 829 c-10 -6 -27 -25 -37 -42 -19 -31 -19 -32 1 -53 18 -19 25
-21 51 -12 24 8 29 15 24 32 -3 11 -6 36 -6 54 0 34 -5 37 -33 21z"/>
<path d="M1555 739 c-11 -16 4 -59 20 -59 11 0 12 -6 3 -31 -8 -24 -8 -34 4
-45 8 -8 22 -12 30 -9 13 5 15 12 7 38 -6 18 -14 40 -20 49 -7 13 -4 20 13 29
21 11 21 12 3 25 -22 17 -51 18 -60 3z"/>
<path d="M1796 713 c2 -49 4 -53 23 -53 25 0 37 31 17 46 -9 6 -16 16 -16 23
0 6 -6 11 -13 11 -7 0 -12 -11 -11 -27z"/>
<path d="M3575 712 c-10 -10 -5 -22 9 -22 8 0 16 6 19 13 5 13 -17 19 -28 9z"/>
<path d="M2400 652 c0 -5 11 -14 25 -20 29 -13 33 -5 8 14 -21 15 -33 18 -33
6z"/>
<path d="M3878 603 c-21 -5 -24 -33 -5 -33 14 0 37 20 37 32 0 8 -4 9 -32 1z"/>
<path d="M1845 550 c3 -5 13 -10 21 -10 8 0 14 5 14 10 0 6 -9 10 -21 10 -11
0 -17 -4 -14 -10z"/>
<path d="M1906 493 c9 -34 34 -63 55 -63 9 0 22 14 29 30 17 41 0 60 -51 60
-38 0 -39 -1 -33 -27z"/>
<path d="M3767 476 c-10 -8 -19 -27 -20 -42 -2 -23 3 -30 21 -32 16 -3 27 5
40 27 9 17 20 31 25 31 4 0 7 7 7 15 0 19 -48 20 -73 1z"/>
<path d="M1710 440 c0 -34 3 -40 21 -40 28 0 59 18 59 34 0 19 -34 46 -58 46
-19 0 -22 -6 -22 -40z"/>
<path d="M2365 384 c-25 -19 -21 -63 9 -84 11 -8 39 -17 62 -20 37 -5 42 -3
53 21 12 28 1 77 -22 91 -20 13 -81 8 -102 -8z"/>
<path d="M3964 323 c-11 -35 -22 -48 -62 -76 -22 -15 -44 -36 -47 -47 -4 -11
-17 -23 -29 -26 -26 -6 -68 -57 -64 -77 6 -31 -14 -57 -52 -67 -65 -18 -57
-30 19 -30 63 0 70 2 77 22 4 12 17 31 30 41 13 10 24 24 24 32 0 13 49 60 71
67 6 2 13 19 15 38 6 51 11 60 33 60 28 0 41 28 28 57 -12 27 -35 30 -43 6z"/>
<path d="M1772 299 c2 -7 10 -15 17 -17 8 -3 12 1 9 9 -2 7 -10 15 -17 17 -8
3 -12 -1 -9 -9z"/>
<path d="M1435 270 c-9 -15 4 -50 20 -50 18 0 28 30 14 46 -14 17 -25 18 -34
4z"/>
<path d="M1841 254 c0 -11 3 -14 6 -6 3 7 2 16 -1 19 -3 4 -6 -2 -5 -13z"/>
<path d="M1913 224 c-7 -18 20 -44 44 -44 23 0 28 32 8 46 -25 19 -44 18 -52
-2z"/>
<path d="M1736 181 c-4 -5 5 -23 19 -39 14 -16 25 -35 25 -41 0 -6 12 -17 28
-24 15 -6 30 -16 34 -22 4 -5 8 7 8 28 0 20 -4 37 -9 37 -5 0 -13 9 -16 20 -4
11 -19 27 -35 35 -33 17 -47 19 -54 6z"/>
<path d="M1990 160 c0 -13 18 -22 24 -11 3 5 -1 11 -9 15 -8 3 -15 1 -15 -4z"/>
<path d="M3989 73 c-22 -3 -28 -10 -31 -39 l-4 -34 116 0 c83 0 111 3 100 11
-27 19 -135 69 -145 67 -5 0 -22 -3 -36 -5z"/>
<path d="M1800 40 c0 -5 15 -10 33 -9 27 0 29 2 12 9 -28 12 -45 12 -45 0z"/>
<path d="M2587 31 c-7 -28 -1 -31 60 -31 65 0 72 19 13 38 -54 16 -67 15 -73
-7z"/>
</g>
</svg>
